# xmcd
#
# Track frame offsets: 
#        150
#        19690
#        39452
#        61285
#        77332
#        97967
#        118877
#        137370
#        162045
#        181820
#        200410
#        221860
#        235052
#        249725
#        272705
#        294422
#        311247
#        328042
#
# Disc length: 4636 seconds
#
# Revision: 0
# Processed by: cddbd v1.5.2PL0 Copyright (c) Steve Scherf et al.
# Submitted via: ExactAudioCopy v1.1
#
DISCID=fa121a12
DTITLE=Various Artist - Knuffelkerst - CD 2
DYEAR=2000
DGENRE=Chorus
TTITLE0=Queen - Thank God It's Christmas
TTITLE1=Wham! - Last Christmas
TTITLE2=Kate Bush - December Will Be Magic Again
TTITLE3=Mud - Lonely This Christmas
TTITLE4=Vanessa Williams - Have Yourself A Merry Little
TTITLE5=Babyface - White Christmas
TTITLE6=Xscape - Christmas Without You
TTITLE7=Frankie Goes To Hollywood - Power Of Love
TTITLE8=Boney M - Little Drummer Boy
TTITLE9=Doug Ashdown - Winter In America
TTITLE10=Fay Lovsky - Christmas Was A Friend Of Mine
TTITLE11=Jona Lewie - Stop The Cavalry
TTITLE12=Dana - It's Gonna Be A Cold Cold Christmas
TTITLE13=Luther Vandross - Every Year Every Christmas
TTITLE14=Close II You - Baby Don't Go (Xmas Mix)
TTITLE15=Band Aid - Do They Know It's Christmas
TTITLE16=Slade - Merry X-Mas Everybody
TTITLE17=A-Teens - Happy New Year
EXTD=
EXTT0=
EXTT1=
EXTT2=
EXTT3=
EXTT4=
EXTT5=
EXTT6=
EXTT7=
EXTT8=
EXTT9=
EXTT10=
EXTT11=
EXTT12=
EXTT13=
EXTT14=
EXTT15=
EXTT16=
EXTT17=
PLAYORDER=
